PathFileType	4	(X/Y/Z)	Beam_150-250.trc
DataRate	CameraRate	NumFrames	NumMarkers	Units	OrigDataRate	OrigDataStartFrame	OrigNumFrames
60	60	7	21	m	60	50	99
Frame#	Time	RHip			RKnee			RAnkle			RBigToe			RSmallToe			RHeel			LHip			LKnee			LAnkle			LBigToe			LSmallToe			LHeel			Neck			Head			Nose			RShoulder			RElbow			RWrist			LShoulder			LElbow			LWrist		
		X1	Y1	Z1	X2	Y2	Z2	X3	Y3	Z3	X4	Y4	Z4	X5	Y5	Z5	X6	Y6	Z6	X7	Y7	Z7	X8	Y8	Z8	X9	Y9	Z9	X10	Y10	Z10	X11	Y11	Z11	X12	Y12	Z12	X13	Y13	Z13	X14	Y14	Z14	X15	Y15	Z15	X16	Y16	Z16	X17	Y17	Z17	X18	Y18	Z18	X19	Y19	Z19	X20	Y20	Z20	X21	Y21	Z21	
50	3.35	-0.22691024125771117	1.0012479521387831	-1.0180764298844693	-0.522274399178186	0.7537095261105724	-0.8521287684056338	-0.7913324548032858	0.45022727612886326	-0.8955287043607124	-0.824973609090215	0.4096207807986587	-0.7248219896637029	-0.8307796326406256	0.37918756124835085	-0.8195547327990147	-0.8094662796502028	0.4353517277229149	-0.9379005441993058	-0.0635692341887205	0.8824379439934656	-1.0853716252555792	-0.07707950710811876	0.5165178220887642	-0.9048265672304711	-0.015642270026298224	0.14484602121647808	-1.1499185482656333	-0.006396297142944317	0.08020482289114228	-1.0000216137504374	0.023828861145705156	0.08230069677856777	-1.0309124351021914	-0.009287060154259034	0.11780818551853624	-1.198467458567379	0.24684375164639033	1.316706014019284	-0.9391822817027815	0.43385167261915153	1.4813712362057567	-0.8096393937926923	0.3318597800406157	1.3485543282704406	-0.8005969016559906	0.09682788456944634	1.4115398524145655	-0.9627476633883236	-0.16369741225166412	1.506046560435244	-0.9755456627427347	-0.07810606327809946	1.649385402641618	-0.8024724507788159	0.31612612440044846	1.1836643035503536	-1.0489964465992618	0.3846790272957928	0.8818931985456824	-1.0775166590904413	0.4168505662628074	0.6402951328072813	-0.9953708198005448
51	3.3666666666666667	-0.22543695874243547	1.0027437452072687	-1.0051335600579656	-0.5165860516293753	0.7522194017284531	-0.8447132037839952	-0.7790563250635038	0.44469218898418866	-0.8840916507231404	-0.8110098890694508	0.39654043570504854	-0.7306487590836037	-0.815830379200694	0.37051116430159897	-0.8080553929691184	-0.7958456443515869	0.42809415896526637	-0.9267802777666334	-0.06235848882669776	0.8850268708728433	-1.0788442716537539	-0.07588246344050274	0.5176550784510952	-0.9073295904463128	-0.014385476439855712	0.14569271901261938	-1.1484153048214096	-0.006801716952522461	0.08089281226505259	-0.9989134071865389	0.024102228300321805	0.08362106528406077	-1.0291584177668094	-0.00795353688231125	0.1172441405435054	-1.1970875895284931	0.24506285200486533	1.317461954502348	-0.9363791260419482	0.4321542427696633	1.4820689894197765	-0.8030927608506895	0.3301627467800533	1.3474258349179722	-0.794759430305263	0.09607292020620052	1.4147434126377656	-0.9503684793827396	-0.16531511353040812	1.5073403697597096	-0.9611351713560814	-0.07154379019911049	1.6451239115370213	-0.7882638930937477	0.3171639737467904	1.1853819214125845	-1.0398513228833446	0.3849279211404302	0.8841208230836345	-1.0740818572957076	0.4196296067182947	0.6423828291488992	-0.9910599014208312
52	3.3833333333333333	-0.22481684875990843	1.003665551113979	-0.9965022041626289	-0.5099700407863195	0.7492278250493801	-0.8376462499498237	-0.7635894830914863	0.4364814666165437	-0.8741348444458792	-0.7928431771081176	0.3811777355904126	-0.7374628273576482	-0.7981538282914167	0.3605972723218589	-0.7955874581424972	-0.7791400818352856	0.4167040816773021	-0.9147155274330718	-0.06215305271133677	0.8877501315241426	-1.075194485909859	-0.07431499475571644	0.5186404199440652	-0.910067697086083	-0.012901485067202099	0.1463376205157323	-1.147044138649347	-0.007123945781650847	0.08152897295753878	-0.9981074769700132	0.024432741021449034	0.08495411367099498	-1.0277374187641624	-0.006256847384191186	0.11667567207120608	-1.1959902079587188	0.242432652201669	1.3178909119673927	-0.9360342937608281	0.4296065904675918	1.4832557266761948	-0.7964958291183547	0.327921452889572	1.3467354334779387	-0.7888750787574517	0.09385657328111408	1.4175508382454356	-0.9415659584956725	-0.16731444891275066	1.5080382066067008	-0.9477444882285594	-0.06738319583530668	1.6402357400086016	-0.7750751293053696	0.3191721953169234	1.1873377011806694	-1.0283388770516049	0.3852609748071423	0.8873686076822442	-1.069948979338661	0.4222803960461151	0.6455742626560557	-0.9837336655298043
53	3.4	-0.22482865928400464	1.0041632772014037	-0.9911199598397665	-0.5019752224428682	0.7445752227979802	-0.8307564969956325	-0.7445550901449693	0.42550868187636076	-0.8657251411696109	-0.769128903400974	0.3643109016723352	-0.7419791167962979	-0.7777052250222777	0.34981952022780943	-0.7828350356220154	-0.7598714089194621	0.4014549691911545	-0.9031016147031304	-0.06367235873164262	0.8908091201110659	-1.0758462652253107	-0.07281075875308024	0.5195250292166368	-0.9127558052826039	-0.011774242379362046	0.1466986691551018	-1.1462592878870792	-0.00716331958382953	0.08211652087527532	-0.9975733150707651	0.024725192361914256	0.08606877815499192	-1.0271000972895172	-0.004516534914078889	0.11610007247744454	-1.195579686872291	0.23885948610249194	1.3176157404073359	-0.9377792649862768	0.42628202440969104	1.4842884133420884	-0.7898253346756453	0.32482472918655186	1.346349102864043	-0.7821720687790406	0.09059723346533215	1.420075425989922	-0.9348315906076379	-0.16973819425974634	1.5082198465410819	-0.9351521186002726	-0.06530617437562711	1.6350748970736488	-0.7630552897953987	0.321083921264611	1.1895551276346763	-1.0177803653631394	0.38552027436938235	0.8916332953915546	-1.0649867366165453	0.424862068515744	0.6501166903092541	-0.973570273140619
54	3.4166666666666665	-0.2251178055882593	1.004480743616795	-0.9877841126272677	-0.4920676608458746	0.7382420696763758	-0.8242652742680691	-0.721535749888011	0.41191714620260217	-0.8583554666409958	-0.7393288319277936	0.34727979066139286	-0.7403154661228403	-0.7543548071251477	0.3386070061626953	-0.7694485005047815	-0.7376471378730854	0.38331454816241134	-0.8934515130064654	-0.06621925891784652	0.8941708895392354	-1.0793759133764023	-0.07158701382200387	0.5203990193662906	-0.9151355815760848	-0.011349288830982115	0.14667619010097385	-1.1463883389776561	-0.0069147804265084585	0.08256831547622158	-0.9972578147799261	0.024874305276864617	0.08673128334506677	-1.0273660752077143	-0.003119611974580635	0.11545399112093731	-1.1961732680675727	0.2344367887207303	1.3165574691217006	-0.9400732698278029	0.4219983600939454	1.484734354293725	-0.7833480381736757	0.32049799708517657	1.346271742577323	-0.7739604665285058	0.08688183193786764	1.4223069918638616	-0.9283199729355992	-0.17250937857502952	1.50795394155229	-0.9231653807590967	-0.06470754427012483	1.629772070238252	-0.7521771890226397	0.3221902103962347	1.1922290424694548	-1.0099185322510182	0.38572012977818854	0.8967994230142725	-1.0592364704478594	0.42744283645326786	0.6560648991361478	-0.9615287779554631
55	3.433333333333333	-0.22537078599600474	1.004812830603737	-0.9854570812771685	-0.4798395746764728	0.730348263538621	-0.8187936134831045	-0.6944426602837968	0.39609562062575526	-0.8514046179758548	-0.7039456187395929	0.3308041604267093	-0.7302909775518072	-0.7279044757518567	0.32695892752463535	-0.7546815392103923	-0.711529797501016	0.3635784268267869	-0.8858169162450178	-0.06857269693602301	0.8976272928452849	-1.083099309183026	-0.07063640059647622	0.5212872882421871	-0.9171435444037311	-0.0116701223954984	0.14622799448306673	-1.1475453230258903	-0.0065371288427238765	0.0827635369119352	-0.9971228444545814	0.024806588617225143	0.0867996705506455	-1.0283030325438651	-0.0024211442397334124	0.11471673626844317	-1.1977840299072424	0.22956728692303388	1.3151826924882974	-0.9404744731271214	0.4161990850423853	1.4845569369954754	-0.7768866745493949	0.314671302795861	1.346622534738649	-0.763975562145739	0.08314156037232724	1.424126011672104	-0.9209905994097055	-0.17537957354289077	1.507260357605214	-0.9117396467145258	-0.0651013276276744	1.624233094783199	-0.7421321135004848	0.3223754208493593	1.1954626604333676	-1.0044151969039001	0.3860995444115061	0.9026885946646873	-1.0528256811828867	0.4300617083127878	0.6632204571519753	-0.948912235494108
56	3.45	-0.22547403928369997	1.0052238010551962	-0.9833309159846025	-0.46529873244684344	0.7211677304454844	-0.8149368059416047	-0.663464533691468	0.3784802272646368	-0.8441930274783694	-0.6643058175640464	0.3144052307566109	-0.7127645743243377	-0.698155341137732	0.3143357523964099	-0.7383255783384705	-0.6808547559992842	0.3434353841072246	-0.8787157287219908	-0.07003572054896154	0.9009479967150922	-1.0853940495244268	-0.06990896962880198	0.5221780156836231	-0.9188084799475948	-0.012558693571860399	0.14544354205611326	-1.149531639858877	-0.006243869308681651	0.08262139464837207	-0.9971017522589493	0.02449054282171554	0.08619110131569957	-1.0295634034214958	-0.0025673350520671458	0.11380331097548783	-1.1999735553654916	0.22461117709317413	1.3142144396425712	-0.9370261101139482	0.4083457154265588	1.4841337456885344	-0.769445559939878	0.30722307181455744	1.3474267917522347	-0.752295116021279	0.07957788064631051	1.4257371805242816	-0.9124472397978728	-0.17809397816906633	1.506093572734744	-0.9010239584932609	-0.06638866927055649	1.618429097170597	-0.7322953237708395	0.32175550857928964	1.1990166495592212	-1.0002769133856535	0.3869025895638935	0.9091023821373361	-1.0456768660629303	0.43257207433658085	0.6711288673132219	-0.9371887344685655
